<svg xmlns="http://www.w3.org/2000/svg" version="1.1" xmlns:xlink="http://www.w3.org/1999/xlink" xmlns:svgjs="http://svgjs.dev/svgjs" width="1000" height="1000" viewBox="0 0 1000 1000"><rect width="1000" height="1000" fill="#ff5858"></rect><g transform="matrix(0.4679144385026738,0,0,0.4679144385026738,265.9261059795819,150.28340080971657)"><svg viewBox="0 0 165 247" data-background-color="#ff5858" preserveAspectRatio="xMidYMid meet" height="1496" width="1000" xmlns="http://www.w3.org/2000/svg" xmlns:xlink="http://www.w3.org/1999/xlink"><g id="tight-bounds" transform="matrix(1,0,0,1,0.0411428571428587,-0.09999999999999432)"><svg viewBox="0 0 164.91771428571428 247.2" height="247.2" width="164.91771428571428"><g><svg viewBox="0 0 164.91771428571428 247.2" height="247.2" width="164.91771428571428"><g><svg viewBox="0 0 164.91771428571428 247.2" height="247.2" width="164.91771428571428"><g id="textblocktransform"><svg viewBox="0 0 164.91771428571428 247.2" height="247.2" width="164.91771428571428" id="textblock"><g><svg viewBox="0 0 164.91771428571428 247.2" height="247.2" width="164.91771428571428"><g transform="matrix(1,0,0,1,0,0)"><svg width="164.91771428571428" viewBox="4.349999904632568 -35 23.350000381469727 35" height="247.2" data-palette-color="#ffffff"><path d="M26.55 0L5.5 0Q4.95 0 4.65-0.33 4.35-0.65 4.35-1.15L4.35-1.15 4.35-33.8Q4.35-34.35 4.65-34.68 4.95-35 5.5-35L5.5-35 26.15-35Q26.7-35 27-34.68 27.3-34.35 27.3-33.8L27.3-33.8 27.3-31.9Q27.3-31.35 27-31.05 26.7-30.75 26.15-30.75L26.15-30.75 9.15-30.75 9.15-19.8 25.05-19.8Q25.6-19.8 25.9-19.48 26.2-19.15 26.2-18.6L26.2-18.6 26.2-16.75Q26.2-16.25 25.9-15.93 25.6-15.6 25.05-15.6L25.05-15.6 9.15-15.6 9.15-4.25 26.55-4.25Q27.1-4.25 27.4-3.95 27.7-3.65 27.7-3.1L27.7-3.1 27.7-1.15Q27.7-0.65 27.4-0.33 27.1 0 26.55 0L26.55 0Z" opacity="1" transform="matrix(1,0,0,1,0,0)" fill="#ffffff" class="wordmark-text-0" data-fill-palette-color="primary" id="text-0"></path></svg></g></svg></g></svg></g></svg></g><g></g></svg></g><defs></defs></svg><rect width="164.91771428571428" height="247.2" fill="none" stroke="none" visibility="hidden"></rect></g></svg></g></svg>